<?xml version="1.0" standalone="no"?>
<!DOCTYPE svg PUBLIC "-//W3C//DTD SVG 20010904//EN"
 "http://www.w3.org/TR/2001/REC-SVG-20010904/DTD/svg10.dtd">
<svg version="1.0" xmlns="http://www.w3.org/2000/svg"
 width="242.000000pt" height="242.000000pt" viewBox="0 0 242.000000 242.000000"
 preserveAspectRatio="xMidYMid meet">
<metadata>
Created by potrace 1.14, written by Peter Selinger 2001-2017
</metadata>
<g transform="translate(0.000000,242.000000) scale(0.100000,-0.100000)"
fill="#000000" stroke="none">
<path d="M273 1770 c-64 -39 -63 -29 -63 -562 0 -461 1 -484 20 -515 40 -66
-14 -63 975 -63 986 0 945 -3 985 62 19 32 20 49 20 511 0 528 0 529 -62 567
-32 20 -48 20 -938 20 -880 0 -906 -1 -937 -20z m1661 -461 c19 -15 26 -30 26
-55 0 -42 -26 -69 -79 -84 -35 -9 -61 -33 -61 -54 0 -3 32 -6 70 -6 56 0 70
-3 70 -15 0 -12 -16 -15 -80 -15 l-80 0 0 38 c0 46 18 66 77 81 33 9 44 18 49
38 9 35 -7 57 -43 61 -34 3 -63 -19 -63 -49 0 -10 -7 -19 -15 -19 -18 0 -19
20 -4 54 22 47 89 60 133 25z m-1444 -94 l0 -105 35 0 c24 0 35 -5 35 -15 0
-12 -16 -15 -80 -15 -64 0 -80 3 -80 15 0 10 10 15 30 15 l30 0 -1 98 -1 97
-19 -42 c-11 -24 -26 -43 -34 -43 -11 0 -10 10 7 50 18 44 24 50 49 50 l29 0
0 -105z m430 0 l0 -105 35 0 c24 0 35 -5 35 -15 0 -12 -16 -15 -86 -15 -64 0
-85 3 -82 13 3 6 19 13 36 15 l32 3 -1 97 0 97 -22 -42 c-11 -24 -27 -43 -34
-43 -17 0 -17 2 9 55 18 37 27 45 50 45 l28 0 0 -105z m-218 33 c2 -28 8 -34
31 -36 37 -4 35 -22 -3 -22 -27 0 -30 -3 -30 -30 0 -16 -4 -30 -10 -30 -5 0
-10 14 -10 30 0 27 -3 30 -30 30 -38 0 -40 18 -2 22 22 2 28 8 30 36 2 17 7
32 12 32 5 0 10 -15 12 -32z"/>
</g>
</svg>
